<?xml version="1.0" encoding="UTF-8"?>
<svg version="1.1" xmlns="http://www.w3.org/2000/svg" width="32" height="32">
<path d="M0 0 C0.66 0 1.32 0 2 0 C2 0.66 2 1.32 2 2 C2.886875 1.896875 3.77375 1.79375 4.6875 1.6875 C8 2 8 2 10.8125 4.0625 C13.3525648 7.47344416 13.75307684 9.80230628 14 14 C14.66 14 15.32 14 16 14 C16 16.31 16 18.62 16 21 C15.278125 21.268125 14.55625 21.53625 13.8125 21.8125 C10.97522009 22.87703877 10.97522009 22.87703877 8.75 24.6875 C4.81371994 26.56617912 1.15485835 26.22934011 -3 25 C-4.63671875 23.48828125 -4.63671875 23.48828125 -6 22 C-8.10332891 21.28552357 -8.10332891 21.28552357 -10 21 C-10 18.69 -10 16.38 -10 14 C-9.34 14 -8.68 14 -8 14 C-7.9175 12.9275 -7.835 11.855 -7.75 10.75 C-6.94429847 6.72149234 -6.21808534 5.43794344 -3 3 C-2.34 3 -1.68 3 -1 3 C-0.67 2.01 -0.34 1.02 0 0 Z " fill="#50221A" transform="translate(13,3)"/>
<path d="M0 0 C8.71428571 1.85714286 8.71428571 1.85714286 11 5 C10.67 5.99 10.34 6.98 10 8 C10 7.34 10 6.68 10 6 C8.68 6 7.36 6 6 6 C6.33 7.98 6.66 9.96 7 12 C9.31 12.66 11.62 13.32 14 14 C14 14.99 14 15.98 14 17 C6.74 17 -0.52 17 -8 17 C-8 15.68 -8 14.36 -8 13 C-5.69 13 -3.38 13 -1 13 C-1.66 12.67 -2.32 12.34 -3 12 C-3 11.34 -3 10.68 -3 10 C-3.66 10 -4.32 10 -5 10 C-5 10.66 -5 11.32 -5 12 C-5.66 12 -6.32 12 -7 12 C-6.67506385 8.4257023 -6.36129314 6.44287547 -4.0625 3.625 C-2 2 -2 2 0 2 C0 1.34 0 0.68 0 0 Z " fill="#42241C" transform="translate(13,5)"/>
<path d="M0 0 C0.66 0 1.32 0 2 0 C2 0.66 2 1.32 2 2 C1.34 2 0.68 2 0 2 C0 2.66 0 3.32 0 4 C-0.78375 4.5775 -1.5675 5.155 -2.375 5.75 C-5.39807984 8.34121129 -6.04921098 10.19684394 -7 14 C-6.34 14 -5.68 14 -5 14 C-5 13.34 -5 12.68 -5 12 C-4.34 12 -3.68 12 -3 12 C-3 12.66 -3 13.32 -3 14 C-1.68 14.33 -0.36 14.66 1 15 C0.34 15 -0.32 15 -1 15 C-1.33 15.66 -1.66 16.32 -2 17 C-2 16.34 -2 15.68 -2 15 C-3.98 15.33 -5.96 15.66 -8 16 C-8.33 17.32 -8.66 18.64 -9 20 C-8.2575 20.12375 -7.515 20.2475 -6.75 20.375 C-4.19858515 20.95486701 -2.2732427 21.73708739 0 23 C-0.33 22.34 -0.66 21.68 -1 21 C-0.01 21.33 0.98 21.66 2 22 C2 22.66 2 23.32 2 24 C2.66 24 3.32 24 4 24 C4.33 23.01 4.66 22.02 5 21 C5.66 21.33 6.32 21.66 7 22 C7.66 22 8.32 22 9 22 C9.66 22.33 10.32 22.66 11 23 C7.7324318 25.63513565 5.45624358 26.22786445 1.375 25.875 C-2.20435871 25.47186404 -3.59000573 24.63096795 -6 22 C-8.10332891 21.28552357 -8.10332891 21.28552357 -10 21 C-10 18.69 -10 16.38 -10 14 C-9.34 14 -8.68 14 -8 14 C-7.9175 12.9275 -7.835 11.855 -7.75 10.75 C-6.94429847 6.72149234 -6.21808534 5.43794344 -3 3 C-2.34 3 -1.68 3 -1 3 C-0.67 2.01 -0.34 1.02 0 0 Z " fill="#1A1718" transform="translate(13,3)"/>
<path d="M0 0 C3.29164829 -0.02895225 6.58326399 -0.0467823 9.875 -0.0625 C10.81214844 -0.07087891 11.74929687 -0.07925781 12.71484375 -0.08789062 C14.05869141 -0.09272461 14.05869141 -0.09272461 15.4296875 -0.09765625 C16.67081299 -0.10551147 16.67081299 -0.10551147 17.93701172 -0.11352539 C20 0 20 0 22 1 C22 1.99 22 2.98 22 4 C14.74 4 7.48 4 0 4 C0 2.68 0 1.36 0 0 Z " fill="#A67B50" transform="translate(5,18)"/>
<path d="M0 0 C8.71428571 1.85714286 8.71428571 1.85714286 11 5 C10.67 5.99 10.34 6.98 10 8 C10 7.34 10 6.68 10 6 C8.68 6 7.36 6 6 6 C6 7.98 6 9.96 6 12 C5.67 12 5.34 12 5 12 C5 10.02 5 8.04 5 6 C4.34 6 3.68 6 3 6 C2.87625 6.639375 2.7525 7.27875 2.625 7.9375 C2.41875 8.618125 2.2125 9.29875 2 10 C1.01 10.495 1.01 10.495 0 11 C0 7.37 0 3.74 0 0 Z " fill="#954823" transform="translate(13,5)"/>
<path d="M0 0 C4.95 0 9.9 0 15 0 C14.67 0.99 14.34 1.98 14 3 C11.9375 3.6875 11.9375 3.6875 10 4 C10 3.34 10 2.68 10 2 C9.67 2.66 9.34 3.32 9 4 C6.43736396 4 4.46699649 3.82233216 2 3 C1.34 2.01 0.68 1.02 0 0 Z " fill="#7C1F1C" transform="translate(8,23)"/>
<path d="M0 0 C0.25 6.625 0.25 6.625 -2 10 C-2 9.34 -2 8.68 -2 8 C-2.66 8 -3.32 8 -4 8 C-4 8.66 -4 9.32 -4 10 C-4.66 10 -5.32 10 -6 10 C-5.67112602 6.38238619 -5.37334709 4.44334967 -3 1.625 C-1 0 -1 0 0 0 Z " fill="#9E4021" transform="translate(12,7)"/>
<path d="M0 0 C0.99 0.33 1.98 0.66 3 1 C3 1.66 3 2.32 3 3 C3.66 3 4.32 3 5 3 C5.33 2.01 5.66 1.02 6 0 C6.66 0.33 7.32 0.66 8 1 C8.66 1 9.32 1 10 1 C10.66 1.33 11.32 1.66 12 2 C8.16674383 4.70582788 5.67461851 5.32613618 1 5 C0.67 3.35 0.34 1.7 0 0 Z " fill="#261C1A" transform="translate(12,24)"/>
<path d="M0 0 C4.55384615 -0.36923077 4.55384615 -0.36923077 6.8125 1.5 C7.204375 1.995 7.59625 2.49 8 3 C7.67 3.99 7.34 4.98 7 6 C7 5.34 7 4.68 7 4 C4.69 3.67 2.38 3.34 0 3 C0 2.01 0 1.02 0 0 Z " fill="#EA6D3B" transform="translate(16,7)"/>
<path d="M0 0 C2.31 0.33 4.62 0.66 7 1 C7 1.99 7 2.98 7 4 C4.69 3.67 2.38 3.34 0 3 C0 2.01 0 1.02 0 0 Z " fill="#BA8A5A" transform="translate(20,18)"/>
<path d="M0 0 C2.6875 -0.3125 2.6875 -0.3125 6 0 C8.875 2.5 8.875 2.5 11 5 C10.67 5.66 10.34 6.32 10 7 C9.0925 6.21625 8.185 5.4325 7.25 4.625 C4.94809764 2.69947504 2.78422793 1.17794259 0 0 Z " fill="#1E0C10" transform="translate(15,5)"/>
</svg>
